<?xml version="1.0" encoding="utf-8"?>
<!-- Generator: Adobe Illustrator 16.0.4, SVG Export Plug-In . SVG Version: 6.00 Build 0)  -->
<!DOCTYPE svg PUBLIC "-//W3C//DTD SVG 1.1//EN" "http://www.w3.org/Graphics/SVG/1.1/DTD/svg11.dtd">
<svg version="1.1" xmlns="http://www.w3.org/2000/svg" xmlns:xlink="http://www.w3.org/1999/xlink" x="0px" y="0px"
	 width="644.064px" height="461.978px" viewBox="0 -66.899 644.064 461.978" enable-background="new 0 -66.899 644.064 461.978"
	 xml:space="preserve">
<g id="Layer_10">
</g>
<g id="Layer_1">
	<text transform="matrix(1 0 0 1 320.6953 126.8813)" fill="#FFFFFF" font-family="'EmmascriptMVBStd'" font-size="54.9561">The</text>
	<text transform="matrix(1 0 0 1 277.0527 173.999)" fill="#FFFFFF" font-family="'AnticSlab-Regular'" font-size="54.9561">Fishpond</text>
	<g>
		<path fill="#FFFFFF" d="M287.02,135.831c0,0-0.019,0.748-0.052,2.198c-0.063,1.449-0.008,3.604-0.271,6.402
			c-0.354,5.592-1.251,13.838-4.051,23.949c-0.357,1.264-0.729,2.557-1.104,3.885c-0.439,1.309-0.894,2.646-1.354,4.021
			c-0.435,1.383-0.998,2.754-1.55,4.164c-0.562,1.405-1.086,2.864-1.766,4.293c-2.49,5.809-5.687,11.883-9.675,18.008
			c-7.94,12.24-19.245,24.7-34.157,34.885c-7.466,5.056-15.809,9.509-24.89,13.027c-9.071,3.54-18.935,5.959-29.218,7.248
			c-1.281,0.2-2.58,0.28-3.881,0.396c-1.303,0.104-2.606,0.211-3.916,0.316c-1.312,0.043-2.631,0.087-3.952,0.13l-1.986,0.063
			c-0.711,0.008-1.331-0.02-2.003-0.023c-1.319-0.021-2.645-0.047-3.973-0.068c-1.331-0.039-2.685-0.168-4.033-0.248
			c-2.711-0.127-5.391-0.518-8.102-0.826c-5.391-0.807-10.828-1.815-16.181-3.379c-2.705-0.682-5.337-1.646-8.016-2.506
			c-1.322-0.479-2.631-1.007-3.952-1.509l-1.979-0.766l-1.945-0.861c-10.429-4.501-20.375-10.604-29.418-18.045
			c-4.542-3.702-8.74-7.86-12.756-12.214c-3.993-4.385-7.615-9.129-10.992-14.064c-3.358-4.955-6.28-10.224-8.924-15.64
			c-2.615-5.438-4.723-11.122-6.539-16.899c-1.792-5.795-3.044-11.752-4-17.754c-0.896-6.018-1.282-12.101-1.368-18.185
			c-0.005-24.352,7.382-48.653,20.823-68.481c3.377-4.938,7-9.684,10.993-14.066c4.016-4.354,8.217-8.508,12.754-12.218
			c9.045-7.44,18.992-13.545,29.422-18.046l1.945-0.861l1.98-0.766c1.321-0.502,2.63-1.029,3.953-1.507
			c2.679-0.862,5.312-1.825,8.017-2.506c5.354-1.561,10.791-2.573,16.183-3.377c2.71-0.311,5.396-0.701,8.091-0.825
			c1.345-0.081,2.684-0.209,4.021-0.249c1.34-0.023,2.675-0.047,4.007-0.07c0.676-0.007,1.306-0.033,2.017-0.025l1.971,0.065
			c1.312,0.043,2.618,0.086,3.922,0.129c1.313,0.106,2.625,0.212,3.931,0.318c1.307,0.113,2.609,0.194,3.892,0.395
			c10.285,1.29,20.146,3.709,29.22,7.25c9.081,3.521,17.426,7.974,24.889,13.029c14.914,10.186,26.215,22.649,34.158,34.889
			c3.986,6.125,7.185,12.2,9.672,18.009c0.681,1.427,1.201,2.887,1.767,4.293c0.552,1.411,1.114,2.782,1.55,4.165
			c0.462,1.373,0.913,2.713,1.354,4.021c0.377,1.328,0.744,2.622,1.104,3.883c2.802,10.114,3.694,18.359,4.052,23.952
			c0.264,2.796,0.205,4.954,0.271,6.403C287.001,135.083,287.02,135.831,287.02,135.831z M287.02,135.831
			c0,0-0.021-0.748-0.06-2.198c-0.067-1.448-0.021-3.605-0.289-6.401c-0.373-5.589-1.295-13.829-4.125-23.925
			c-2.803-10.065-7.5-22.076-15.615-34.219c-8.041-12.119-19.385-24.482-34.381-34.328c-7.486-4.902-15.824-9.184-24.858-12.527
			c-9.028-3.362-18.802-5.596-28.954-6.709c-1.267-0.179-2.542-0.237-3.818-0.328c-1.276-0.084-2.562-0.168-3.848-0.253
			c-1.305-0.023-2.611-0.046-3.924-0.069l-1.972-0.034c-0.604,0.004-1.292,0.039-1.938,0.056c-1.309,0.043-2.62,0.087-3.938,0.13
			c-1.315,0.059-2.629,0.207-3.95,0.306c-2.646,0.162-5.278,0.588-7.931,0.933c-5.278,0.873-10.593,1.945-15.811,3.557
			c-2.637,0.707-5.2,1.692-7.806,2.574c-1.287,0.489-2.559,1.024-3.842,1.535l-1.923,0.777l-1.888,0.872
			c-20.226,9.122-38.476,24.378-51.244,43.806c-3.217,4.837-5.995,9.976-8.517,15.242c-2.515,5.277-4.539,10.791-6.281,16.392
			c-1.718,5.616-2.909,11.388-3.818,17.201l-0.549,4.381c-0.207,1.462-0.243,2.915-0.374,4.372c-0.29,2.853-0.244,5.981-0.35,8.857
			c0.067,5.892,0.42,11.782,1.27,17.61c0.909,5.812,2.101,11.586,3.818,17.201c3.401,11.234,8.424,21.926,14.793,31.639
			c12.771,19.428,31.015,34.693,51.247,43.812l1.888,0.872l1.924,0.777c1.284,0.511,2.556,1.047,3.843,1.535
			c2.606,0.882,5.169,1.867,7.807,2.572c5.219,1.61,10.533,2.686,15.812,3.559c2.652,0.345,5.291,0.771,7.92,0.932
			c1.316,0.1,2.617,0.247,3.939,0.307c1.328,0.043,2.651,0.088,3.972,0.131c0.646,0.02,1.345,0.056,1.95,0.059l1.954-0.035
			c1.303-0.021,2.6-0.045,3.893-0.064c1.291-0.086,2.578-0.17,3.861-0.254c1.282-0.092,2.564-0.149,3.829-0.33
			c10.153-1.112,19.927-3.351,28.955-6.711c9.035-3.344,17.373-7.625,24.86-12.528c14.994-9.847,26.337-22.214,34.379-34.332
			c4.021-6.075,7.301-12.095,9.796-17.894c0.685-1.426,1.21-2.879,1.776-4.283c0.557-1.406,1.125-2.773,1.562-4.154
			c0.468-1.369,0.921-2.707,1.364-4.014c0.382-1.324,0.753-2.616,1.113-3.875c2.83-10.098,3.752-18.336,4.125-23.926
			c0.271-2.797,0.223-4.953,0.289-6.4C286.999,136.579,287.02,135.831,287.02,135.831z"/>
	</g>
	<g>
		<path d="M-207.753-118.482c0,0-0.02,0.808-0.057,2.369c-0.068,1.562-0.008,3.887-0.291,6.901
			c-0.385,6.025-1.353,14.914-4.369,25.812c-0.387,1.357-0.783,2.754-1.19,4.188c-0.475,1.41-0.961,2.854-1.459,4.334
			c-0.467,1.488-1.075,2.969-1.671,4.486c-0.607,1.518-1.17,3.092-1.902,4.627c-2.686,6.264-6.131,12.809-10.432,19.405
			c-8.564,13.188-20.75,26.614-36.828,37.58c-8.046,5.44-17.037,10.231-26.824,14.021c-9.775,3.81-20.4,6.408-31.479,7.791
			c-1.384,0.215-2.78,0.301-4.183,0.422c-1.399,0.112-2.809,0.229-4.219,0.34c-1.416,0.048-2.834,0.095-4.259,0.141l-2.14,0.066
			c-0.762,0.009-1.434-0.021-2.158-0.026c-1.422-0.022-2.85-0.054-4.281-0.077c-1.434-0.043-2.891-0.184-4.343-0.271
			c-2.92-0.137-5.807-0.559-8.726-0.896c-5.806-0.868-11.662-1.963-17.425-3.646c-2.913-0.735-5.748-1.774-8.632-2.705
			c-1.424-0.516-2.833-1.084-4.256-1.625l-2.132-0.826l-2.094-0.928c-11.229-4.854-21.937-11.437-31.67-19.451
			c-1.199-1.023-2.4-2.049-3.603-3.076c-1.186-1.046-2.311-2.163-3.472-3.244l-1.725-1.643l-1.653-1.719
			c-1.088-1.16-2.24-2.268-3.279-3.478c-4.298-4.722-8.196-9.832-11.831-15.147c-3.614-5.336-6.758-11.011-9.604-16.843
			c-2.814-5.854-5.083-11.976-7.038-18.194c-1.928-6.238-3.276-12.652-4.304-19.113c-0.964-6.479-1.379-13.027-1.471-19.578
			l0.126-4.891c0.01-1.6,0.147-3.25,0.279-4.896c0.15-1.639,0.203-3.303,0.436-4.92l0.626-4.871
			c1.028-6.461,2.376-12.875,4.304-19.114c1.954-6.223,4.225-12.343,7.037-18.199c2.837-5.836,5.987-11.506,9.6-16.844
			c3.635-5.317,7.533-10.429,11.832-15.149c4.322-4.69,8.846-9.164,13.729-13.162c9.735-8.018,20.444-14.598,31.674-19.451
			l2.094-0.929l2.132-0.826c1.422-0.542,2.832-1.11,4.256-1.626c2.885-0.929,5.72-1.969,8.633-2.704
			c5.764-1.685,11.621-2.778,17.427-3.647c2.919-0.336,5.812-0.758,8.715-0.894c1.449-0.087,2.891-0.227,4.333-0.27
			c1.443-0.026,2.881-0.053,4.315-0.079c0.727-0.008,1.408-0.036,2.17-0.028l2.125,0.069c1.413,0.046,2.822,0.092,4.228,0.138
			c1.416,0.114,2.826,0.227,4.231,0.34c1.405,0.122,2.812,0.208,4.19,0.423c11.08,1.383,21.705,3.984,31.484,7.793
			c9.783,3.789,18.776,8.581,26.821,14.024c16.078,10.965,28.265,24.396,36.827,37.583c4.299,6.6,7.746,13.146,10.432,19.406
			c0.73,1.539,1.297,3.111,1.9,4.627c0.597,1.521,1.204,2.998,1.671,4.489c0.498,1.479,0.983,2.924,1.46,4.334
			c0.406,1.431,0.807,2.826,1.188,4.185c3.021,10.901,3.986,19.788,4.369,25.815c0.283,3.015,0.225,5.34,0.291,6.902
			C-207.773-119.29-207.753-118.482-207.753-118.482z M-207.753-118.482c0,0-0.021-0.807-0.062-2.369
			c-0.071-1.562-0.021-3.887-0.312-6.9c-0.399-6.025-1.396-14.906-4.44-25.79c-0.393-1.356-0.791-2.749-1.201-4.178
			c-0.479-1.407-0.969-2.849-1.471-4.326c-0.473-1.488-1.086-2.962-1.685-4.479c-0.611-1.512-1.179-3.082-1.915-4.616
			c-2.689-6.25-6.223-12.74-10.557-19.291c-8.664-13.067-20.892-26.397-37.049-37.023c-8.07-5.29-17.059-9.912-26.798-13.522
			c-9.731-3.631-20.271-6.046-31.219-7.253c-1.366-0.194-2.742-0.257-4.12-0.356c-1.379-0.091-2.762-0.183-4.148-0.275
			c-1.403-0.025-2.813-0.051-4.229-0.076l-2.124-0.039c-0.655,0.004-1.395,0.041-2.09,0.06c-1.412,0.046-2.827,0.092-4.247,0.138
			c-1.418,0.063-2.836,0.222-4.26,0.328c-2.853,0.173-5.692,0.631-8.555,1.002c-5.693,0.938-11.426,2.092-17.055,3.827
			c-2.845,0.76-5.61,1.822-8.422,2.771c-1.388,0.526-2.76,1.103-4.146,1.653l-2.076,0.837l-2.037,0.939
			c-21.826,9.827-41.526,26.278-55.31,47.237c-3.473,5.219-6.473,10.762-9.196,16.445c-2.714,5.694-4.899,11.644-6.779,17.688
			c-1.854,6.06-3.141,12.289-4.123,18.562l-0.593,4.728c-0.224,1.578-0.263,3.146-0.404,4.72c-0.312,3.085-0.264,6.446-0.378,9.556
			c0.073,6.358,0.455,12.716,1.373,19.005c0.981,6.271,2.268,12.502,4.123,18.562c1.88,6.045,4.067,11.994,6.778,17.688
			c2.715,5.688,5.721,11.229,9.193,16.447c13.786,20.96,33.48,37.42,55.312,47.24l2.038,0.939l2.076,0.838
			c1.385,0.551,2.758,1.127,4.146,1.652c2.812,0.949,5.578,2.012,8.423,2.771c5.629,1.732,11.363,2.889,17.057,3.824
			c2.861,0.37,5.707,0.828,8.544,1c1.421,0.105,2.824,0.268,4.25,0.328c1.431,0.047,2.858,0.096,4.28,0.141
			c0.699,0.02,1.448,0.058,2.104,0.06l2.109-0.038c1.403-0.025,2.805-0.051,4.198-0.075c1.394-0.093,2.78-0.185,4.163-0.276
			c1.383-0.1,2.768-0.162,4.13-0.354c10.948-1.207,21.487-3.623,31.222-7.255c9.738-3.61,18.729-8.23,26.797-13.521
			c16.16-10.627,28.384-23.963,37.047-37.025c4.337-6.553,7.865-13.043,10.557-19.293c0.734-1.534,1.305-3.104,1.914-4.615
			c0.6-1.518,1.212-2.991,1.684-4.479c0.502-1.479,0.991-2.92,1.471-4.326c0.412-1.43,0.812-2.821,1.201-4.178
			c3.051-10.887,4.043-19.768,4.441-25.789c0.293-3.017,0.238-5.342,0.312-6.9C-207.775-117.675-207.753-118.482-207.753-118.482z"
			/>
	</g>
	<text transform="matrix(1 0 0 1 -304.1553 382.6377)" fill="#0D0D0D" font-family="'AnticSlab-Regular'" font-size="54.9561">Fishpond</text>
	<text transform="matrix(1 0 0 1 -260.5132 335.5205)" fill="#100C09" font-family="'EmmascriptMVBStd'" font-size="54.9561">The</text>
	<g>
		<path d="M-294.188,344.47c0,0-0.019,0.748-0.052,2.198c-0.063,1.449-0.008,3.604-0.271,6.402
			c-0.354,5.592-1.251,13.838-4.051,23.949c-0.357,1.264-0.729,2.557-1.104,3.885c-0.439,1.309-0.894,2.646-1.354,4.021
			c-0.435,1.383-0.998,2.754-1.55,4.164c-0.562,1.405-1.086,2.864-1.766,4.293c-2.49,5.809-5.687,11.883-9.675,18.008
			c-7.94,12.24-19.245,24.7-34.157,34.885c-7.466,5.056-15.809,9.509-24.89,13.027c-9.071,3.54-18.935,5.959-29.218,7.248
			c-1.281,0.2-2.58,0.28-3.881,0.396c-1.303,0.104-2.606,0.211-3.916,0.316c-1.312,0.043-2.631,0.087-3.952,0.13l-1.986,0.063
			c-0.711,0.008-1.331-0.02-2.003-0.023c-1.319-0.021-2.645-0.047-3.973-0.068c-1.331-0.039-2.685-0.168-4.033-0.248
			c-2.711-0.127-5.391-0.518-8.102-0.826c-5.391-0.807-10.828-1.815-16.181-3.379c-2.705-0.682-5.337-1.646-8.016-2.506
			c-1.322-0.479-2.631-1.007-3.952-1.509l-1.979-0.766l-1.945-0.861c-10.429-4.501-20.375-10.604-29.418-18.045
			c-4.542-3.702-8.74-7.86-12.756-12.214c-3.993-4.385-7.615-9.129-10.992-14.064c-3.358-4.955-6.28-10.224-8.924-15.64
			c-2.615-5.438-4.723-11.122-6.539-16.899c-1.792-5.795-3.044-11.752-4-17.754c-0.896-6.018-1.282-12.101-1.368-18.185
			c-0.005-24.353,7.382-48.653,20.823-68.481c3.377-4.938,7-9.684,10.993-14.065c4.016-4.354,8.217-8.509,12.754-12.218
			c9.045-7.44,18.992-13.545,29.422-18.047l1.945-0.86l1.98-0.767c1.321-0.502,2.63-1.029,3.953-1.507
			c2.679-0.862,5.312-1.825,8.017-2.506c5.354-1.562,10.791-2.573,16.183-3.377c2.71-0.312,5.396-0.701,8.091-0.825
			c1.345-0.081,2.684-0.209,4.021-0.249c1.34-0.022,2.675-0.047,4.007-0.069c0.676-0.008,1.306-0.033,2.017-0.025l1.971,0.064
			c1.312,0.043,2.618,0.086,3.922,0.129c1.313,0.106,2.625,0.213,3.931,0.318c1.307,0.113,2.609,0.194,3.892,0.395
			c10.285,1.291,20.146,3.71,29.22,7.25c9.081,3.521,17.426,7.975,24.889,13.029c14.914,10.187,26.215,22.649,34.158,34.89
			c3.986,6.125,7.185,12.2,9.672,18.009c0.681,1.427,1.201,2.887,1.767,4.293c0.552,1.411,1.114,2.782,1.55,4.165
			c0.462,1.373,0.913,2.713,1.354,4.021c0.377,1.328,0.744,2.623,1.104,3.883c2.802,10.115,3.694,18.359,4.052,23.953
			c0.264,2.795,0.205,4.953,0.271,6.402C-294.207,343.722-294.188,344.47-294.188,344.47z M-294.188,344.47
			c0,0-0.021-0.748-0.06-2.198c-0.067-1.447-0.021-3.605-0.289-6.4c-0.373-5.59-1.295-13.83-4.125-23.926
			c-2.803-10.064-7.5-22.076-15.615-34.219c-8.041-12.119-19.385-24.482-34.381-34.328c-7.486-4.902-15.824-9.184-24.858-12.527
			c-9.028-3.361-18.802-5.596-28.954-6.709c-1.267-0.179-2.542-0.236-3.818-0.328c-1.276-0.084-2.562-0.168-3.848-0.252
			c-1.305-0.023-2.611-0.047-3.924-0.069l-1.972-0.034c-0.604,0.004-1.292,0.039-1.938,0.057c-1.309,0.043-2.62,0.086-3.938,0.129
			c-1.315,0.06-2.629,0.207-3.95,0.307c-2.646,0.162-5.278,0.588-7.931,0.934c-5.278,0.873-10.593,1.944-15.811,3.557
			c-2.637,0.707-5.2,1.691-7.806,2.574c-1.287,0.488-2.559,1.023-3.842,1.535l-1.923,0.776l-1.888,0.872
			c-20.226,9.122-38.476,24.378-51.244,43.806c-3.217,4.837-5.995,9.976-8.517,15.242c-2.515,5.276-4.539,10.791-6.281,16.392
			c-1.718,5.616-2.909,11.389-3.818,17.201l-0.549,4.381c-0.207,1.463-0.243,2.916-0.374,4.373c-0.29,2.853-0.244,5.98-0.35,8.856
			c0.067,5.892,0.42,11.782,1.27,17.61c0.909,5.812,2.101,11.586,3.818,17.201c3.401,11.234,8.424,21.926,14.793,31.639
			c12.771,19.428,31.015,34.693,51.247,43.812l1.888,0.872l1.924,0.777c1.284,0.511,2.556,1.047,3.843,1.535
			c2.606,0.882,5.169,1.867,7.807,2.572c5.219,1.61,10.533,2.686,15.812,3.559c2.652,0.345,5.291,0.771,7.92,0.932
			c1.316,0.1,2.617,0.247,3.939,0.307c1.328,0.043,2.651,0.088,3.972,0.131c0.646,0.02,1.345,0.056,1.95,0.059l1.954-0.035
			c1.303-0.021,2.6-0.045,3.893-0.064c1.291-0.086,2.578-0.17,3.861-0.254c1.282-0.092,2.564-0.149,3.829-0.33
			c10.153-1.112,19.927-3.351,28.955-6.711c9.035-3.344,17.373-7.625,24.86-12.528c14.994-9.847,26.337-22.214,34.379-34.332
			c4.021-6.075,7.301-12.095,9.796-17.894c0.685-1.426,1.21-2.879,1.776-4.283c0.557-1.406,1.125-2.773,1.562-4.154
			c0.468-1.369,0.921-2.707,1.364-4.014c0.382-1.324,0.753-2.616,1.113-3.875c2.83-10.098,3.752-18.336,4.125-23.926
			c0.271-2.797,0.223-4.953,0.289-6.4C-294.209,345.218-294.188,344.47-294.188,344.47z"/>
	</g>
</g>
<g id="Layer_9">
	<g id="Layer_2">
	</g>
</g>
<g id="Layer_13">
</g>
<g id="Layer_16" display="none">
	
		<image display="inline" overflow="visible" width="2074" height="2074" xlink:href="../../../../../../../Documents/GD Sem.3/Design for Interactive 2/exercise-2/fish.jpg"  transform="matrix(0.24 0 0 0.24 -495.2598 -113.0566)">
	</image>
</g>
<g id="Layer_15">
</g>
<g id="Layer_11">
</g>
<g id="Layer_12">
</g>
<g id="Layer_8">
</g>
<g id="Layer_7">
</g>
<g id="Layer_6">
</g>
<g id="Layer_5">
</g>
<g id="Layer_4">
</g>
<g id="Layer_3">
</g>
<g id="Layer_14">
	<g>
		<path fill="none" stroke="#000000" stroke-width="0.4818" stroke-miterlimit="10" d="M181.271,228.093"/>
		<path fill="none" stroke="#000000" stroke-width="0.4818" stroke-miterlimit="10" d="M178.416,230.637"/>
		<path fill="none" stroke="#000000" stroke-width="0.4818" stroke-miterlimit="10" d="M176.314,237.348"/>
		<path fill="none" stroke="#000000" stroke-width="0.4818" stroke-miterlimit="10" d="M178.022,240.464"/>
		<path fill="none" stroke="#000000" stroke-width="0.4818" stroke-miterlimit="10" d="M177.848,243.816"/>
		<path fill="none" stroke="#000000" stroke-width="0.4818" stroke-miterlimit="10" d="M185.516,245.533"/>
		<path opacity="0.3" fill="#EFAA28" d="M211.299,172.84c0,0-1.268,8.876-3.805,11.413c0,0-10.65,14.961-5.325,35.505
			c0,0-1.521-2.537-3.55-10.398c0,0,0.253-2.409-5.834-0.761c0,0-2.155,1.647-3.803,0c0,0-1.648-1.521-4.692,0
			c0,0-4.185-1.902-6.087,0c0,0-3.931-1.774-7.354,1.647c0,0-5.2-1.015-6.719,1.776c0,0-3.299,0-3.299,3.297
			c0,0-4.058,1.648-1.395,5.832c0,0,3.424,18.134,20.669,19.528c0,0,4.945,2.155,28.783,4.058c0,0,4.947,7.734,11.856,11.856
			c0,0-3.36,12.109,8.306,8.305c0,0,0.507,1.479,5.834,0.739c0,0,8.991,3.551,8.991-8.992c0,0,4.651-0.549,13.959-11.908
			c0,0,0.382-1.647,8.751,1.016c0,0,23.457,11.411,38.801,4.944c0,0,25.488-10.905,4.059-28.403c0,0,0.633-2.409-3.298-3.299
			c0,0,0.888-3.295-2.029-3.295c0,0,0.89-3.806-5.071-3.806c0,0,0-3.169-7.229-4.438c0,0-3.677-4.818-6.719-2.409
			c0,0-2.981-3.36-5.074-1.269c0,0-2.345-1.711-4.057,0c0,0-1.205,1.332-2.535,0c0,0-1.587-1.585-3.171,0c0,0-2.6,4.439-2.6,2.602
			c0,0-0.19-16.931-13.124-29.863c0,0-6.785-14.964-16.264-25.74c0,0,3.202-2.538,6.753-2.538c0,0,1.269-0.126,6.087-3.424
			c0,0,26.881-16.991,24.472-37.786c0,0-2.726-2.346-4.437,1.902c0,0-3.678,1.142-3.678,7.735c0,0-2.535,2.028-4.818,7.228
			c0,0-1.985,4.142-10.777,0c0,0-2.518-3.973-13.602,0c0,0-6.688,2.79-6.688,0c0,0,0.429-13.206,4.733-17.511
			c0,0,3.72-1.34,3.72-10.894c0,0,0.845-6.002-15.893,10.737c0,0-16.57-1.691-17.585,8.454c0,0-1.689-6.763-22.655-22.655
			c0,0-27.05-16.57-35.165-16.57c0,0-18.936-23.67-20.627-34.152c0,0-5.41-2.028,1.691,21.641c0,0-15.217-7.777-6.425,6.424
			c0,0-9.975-3.212,0,6.763c0,0,1.86,44.804,21.303,64.247c0,0-10.483,3.382-40.409,40.407c0,0-9.299,6.932-29.25,6.932
			c0,0,8.792,7.778,20.627,11.159c0,0,37.914,12.089,102.458-31.446C198.112,167.431,208.254,172.84,211.299,172.84z"/>
		<path fill="#D85005" d="M243.904,253.267c0,0,22.173-9.925,16.087-35.284c0,0,6.847-3.55,1.521-16.484
			c0,0,4.996-7.381-6.645-19.021c0,0-7.472-24.092-22.604-34.237l-0.676-24.345c0,0,0.406-6.128,1.075-8.864c0.67-2.734,0,0,0,0
			s-2.268,4.071-2.268,0c0,0-0.164,25.106-15.084,15.082c0,0-7.408-28.012-50.273-48.618c-42.864-20.607,0,0,0,0s6.489,4.118,0,2.59
			c0,0,18.739,6.841,31.486,29.159c0,0,5.122,14.202-1.979,7.101c0,0-41.814-39.022-48.9-48.9s0,0,0,0s-15.338-15.139-15.501-19.828
			c0,0,1.521,16.991,72.785,82.422c0,0,2.231,7.929,7.235,12.936c0,0,5.559,12.391,2.09,23.837c0,0,2.864-0.507-2.09,13.442
			c0,0-8.756,7.101-7.996,25.614c0,0-1.11,35.064,18.846,43.399c0,0,2.863-16.046,18.062-10.242
			C239.076,243.024,243.904,246.755,243.904,253.267z"/>
		<path fill="#EFAA28" d="M85.256,191.86c0,0,37.723,26.122,121.065-32.207c0,0,6.395-1.269,1.755-10.398
			c0,0-8.19-7.101-4.893-15.217c0,0-73.039-66.444-73.039-82.675c0,0-0.76,6.086,8.37,22.825c0,0-8.243-6.848-8.243-8.242
			c0,0,1.141,4.945,4.692,8.495l-6.848-4.057c0,0,17.581,22.398,31.615,31.615c14.035,9.216,0.595,0.595,0.595,0.595
			s-15.091-7.483-21.558-13.95c0,0,16.484,19.021,23.332,23.332c0,0-9.202-3.995-14.59-9.382c0,0,7.101,11.039,19.595,19.593
			c0,0-11.599-3.364-14.896-6.66c0,0,8.116,9.383,16.738,13.694c0,0-7.608,2.537-11.413-1.267c0,0,13.188,10.397,19.273,10.397
			c0,0-11.665,3.043-16.482-1.774c0,0,5.323,6.594,14.961,6.594c0,0-7.607,2.534-16.229,0c0,0,6.086,4.056,15.216,4.056
			c0,0-13.441,5.834-21.81,2.03c0,0,4.311,4.059,15.723,2.536c0,0-19.527,5.833-25.613,5.833c0,0,9.383,2.029,19.78,0
			c0,0-12.426,6.847-22.57,6.847c0,0,9.637,0,13.694,0c0,0-29.45,17.245-40.069,17.245c-10.621,0,15.723,2.03,35.25-8.115
			c0,0-34.597,19.408-47.678,16.232c0,0,12.173,4.31,21.304,1.521C122.284,191.354,102.502,198.708,85.256,191.86z"/>
		<path fill="#FC8201" d="M186.027,99.295c0,0-8.966-11.92-34.833-21.049l6.975,6.973c0,0,8.308,1.417,10.441,3.551h-7.019
			l4.376,4.375c0,0,8.653-1.934,10.589,0c0,0-8.708,0.57-8.708,2.345l3.045,2.874C170.894,98.363,174.958,93.462,186.027,99.295z"/>
		<path fill="#EFAA28" d="M206.321,118.737c0,0,15.46,15.554,12.416,24.347c0,0,11.835-1.354,11.835,11.835
			c0,0-5.114-42.478,4.734-52.326c0,0-3.381-0.762-8.114,14.792l-1.43-6.086c0,0,0,7.101,0,14.878c0,0-4.949-6.764-4.949-11.835
			c0,0-0.529,3.803-0.265,10.185c0,0-3.501-3.084-3.501-7.48c0,0-0.917,5.186,0,11.706
			C217.048,128.753,211.149,120.766,206.321,118.737z"/>
		<path fill="#FC8201" d="M199.971,166.247c0,0,5.803,4.563,12.284,4.563c0,0,2.596-9.129-0.788-9.129
			C211.467,161.682,209.608,158.469,199.971,166.247z"/>
		<path fill="#FC8201" d="M232.264,129.559v17.582l4.653,2.278c0,0,22.44-10.073,30.515-23.242c0,0-3.552,4.396-11.666,7.269
			c0,0,3.042-3.043,5.239-5.242c0,0-13.693,3.552-14.539,6.425c0,0-2.874,3.889-7.608,3.889c0,0,0.677-5.24,5.411-6.762
			c4.734-1.522,0-0.677,0-0.677s-7.947,1.353-8.962,3.89C235.307,134.97,232.264,131.757,232.264,129.559z"/>
		<path fill="#ED4F02" d="M200.816,134.97c0,0-1.502,10.302,5.505,14.449c0,0,3.625,7.19-1.447,8.543
			c0,0-40.915,27.897-52.58,28.911c0,0,16.061-4.396,46.155-27.22c0,0-24.515,10.481-38.717,14.37c0,0,34.83-14.031,38.21-17.414
			c0,0-15.725,7.271-33.983,6.086c0,0,27.449-4.134,30.587-7.27c0,0-8.1,2.367-25.346,0c0,0,19.443,0.339,26.543-3.72
			c0,0-7.137-4.226-14.473-5.58c0,0,12.979,1.018,15.254,3.293c0,0-7.881-7.857-13.631-8.703c0,0,10.989,1.521,14.879,3.552
			c0,0-22.993-15.556-31.953-29.25c0,0,15.385,18.002,26.881,22.78c0,0-14.563-20.56-23.161-26.162c0,0,19.794,12.356,26.035,22.318
			c0,0-4.226-8.624-28.403-30.602C167.171,103.353,195.999,128.121,200.816,134.97z"/>
		<path fill="#ED4F02" d="M220.813,141.223c0,0,3.757-0.422,7.224,3.045c0,0-0.677-11.835,0-21.81c0,0-0.846,5.411-2.197,13.188
			c0,0-2.875-9.048-2.875-11.119c0,0,0.386,6.891,1.461,10.272c0,0-3.612-4.733-3.612-6.93c0,0,1.137,5.239,1.137,7.101
			c0,0-3.382-3.135-3.382-6.217C218.568,128.753,220.813,139.351,220.813,141.223z"/>
		<path fill="#FFFFFF" d="M256.78,226.766c0,0-2.876-4.557-5.242,3.389c0,0-2.071,15.174,2.62,10.483
			C254.158,240.638,262.189,235.042,256.78,226.766z"/>
		<path fill="#FFFFFF" d="M211.299,226.766c0,0-3.212-6.586-4.396,0.854c0,0-2.704,9.131,3.55,12.343c0,0,3.554,3.55,3.554-1.354
			C214.006,238.608,214.851,233.015,211.299,226.766z"/>
		<path fill="#FC8201" d="M213.76,233.502c0,0,2.272,3.586,4.304,1.557c0,0,5.764-3.162,1.181-7.743c0,0-2.025,0.147-1.014-3.239
			c0,0,0.006-4.072-4.139-2.037c0,0-3.016,1.689-3.016,4.312C211.076,226.351,213.347,230.761,213.76,233.502z"/>
		<path fill="#FC8201" d="M251.37,231.584c0,0-3.043-6.725-4.904-0.947c0,0-1.258,5.447,1.69,5.044c0,0,2.637,1.499,2.926-1.298
			L251.37,231.584z"/>
		<path fill="#EFAA28" d="M258.651,243.919c0,0,3.62-0.704,12.16,2.721c0,0,14.879,6.932,29.333,4.48c0,0-11.072,0.787-19.104-3.496
			c0,0,18.598,4.933,28.234-1.237c0,0-7.693,4.48-20.458,0c0,0,20.29-0.569,22.065-4.849c0,0-8.455,5.862-21.98,1.13
			c0,0,13.525-1.186,16.4-3.299c0,0-12.005,1.606-14.457,0c0,0,12.344-2.79,14.203-4.648c0,0-10.071,2.965-16.675,1.318
			c-0.107-0.026-0.212-0.055-0.316-0.083c-6.595-1.828,11.411-2.081,11.919-4.954c0,0-5.794,2.494-10.707,0.771
			c-0.122-0.045-0.245-0.09-0.367-0.139c-4.988-1.986,6.828-3.193,7.355-5.284c0,0-6.088,3.128-9.638,2.367
			c0,0,3.214-3.974,6.678-5.325c0,0-3.382,1.929-10.481,3.373c0,0,4.896-6.848,8.027-8.027c0,0-5.068,0.854-11.916,6.729
			c0,0,5.326-6.978,6.51-9.767c0,0-3.129,4.903-6.425,6.426c0,0,2.958-3.891,2.958-6.426c0,0-2.366,5.749-9.003,9.002
			c0,0,2.747-5.451,5.028-6.974c0,0-3.846,1.479-5.07,3.889c0,0-1.944-2.113,1.606-4.903c0,0-3.382,1.692-5.242,5.242
			c0,0-2.96-4.987,3.552-9.385c0,0-5.242,1.775-6.512,7.863C266.33,220.435,265.597,233.167,258.651,243.919z"/>
		<path fill="#EFAA28" d="M189.167,225.761c0,0-4.823-6.688-5.809-9.288c0,0,2.775,4.653,5.957,6.276c0,0-2.679-3.728-2.502-6.008
			c0,0,1.959,5.354,8.348,8.794c0,0-2.358-5.117-4.528-6.663c0,0,3.732,1.629,4.786,3.89c0,0,2.085-1.75-1.259-4.534
			c0,0,3.253,1.783,4.859,5.12c0,0,3.298-4.258-2.886-8.714c0,0,5.103,2.001,5.942,7.575c0,0-0.156,11.51,6.019,21.718
			c0,0-33.563-2.81-40.301-9.545c0,0,7.155,4.071,12.396,2.966c0,0-14.539-3.531-16.231-8.066c0,0,4.744,5.262,15.053,5.262
			c0,0-11.671-3.793-15.053-9.076c0,0,6.473,4.927,13.889,5.738c0,0-9.318-3.253-12.537-9.504c0,0,5.205,4.845,15.96,7.58
			c0,0-11.104-7.194-12.07-10.115c0,0,6.086,6.018,16.315,8.927s-9.723-6.561-11.412-9.772
			C174.104,218.32,183.941,225.761,189.167,225.761z"/>
		<path fill="#ED4F02" d="M206.321,242.454c0,0-17.974-1.592-23.552-5.106c0,0,11.537,2.553,14.835,2.553
			c0,0-11.44-2.98-12.681-4.22c0,0,10.018,2.209,13.061,2.845c0,0-13.567-5.285-13.567-6.891c0,0,10.146,4.537,13.567,5.713
			c0,0-6.053-3.806-7.845-7.844c0,0,4.674,5.198,7.973,6.476c0,0-0.413-3.771-3.566-8.664c0,0,5.468,5.958,5.468,7.569
			c0,0,0-3.461-2.409-8.28c0,0,1.738,3.255,2.838,4.648c0.119,0.151,0.23,0.281,0.331,0.382c1.037,1.035-0.331-3.505-0.331-6.168
			C200.442,225.467,203.753,241.82,206.321,242.454z"/>
		<path fill="#ED4F02" d="M261.512,242.454c0,0,3.426,0.062,5.961,1.362c0,0,6.848,3.711,9.891,3.711c0,0-5.802-2.188-7.926-4.312
			c0,0,10.167,3.425,14.773,3.299c0,0-13.061-3.484-16.485-4.976c0,0,12.934,0.978,16.485,2.278c0,0-2.028-2.429-13.568-3.353
			c0,0,5.2-1.938,10.144-1.938c0,0-3.55-1.524-10.651,0c0,0,5.962-3.427,11.539-3.427c0,0-5.685-1.688-12.932,0.983
			c0,0,2.788-6.028,9.254-6.801c0,0-6.412-0.446-11.538,4.679c0,0,1.098-5.199,3.805-7.229c0,0-2.03-0.247-4.438,5.455
			c0,0,1.078-5.896,1.901-6.72c0,0-0.888,0.395-3.931,10.214L261.512,242.454z"/>
		<path fill="#E57F00" d="M220.999,256.594c0,0-3.36,12.11,8.306,8.306c0,0,0.507,1.479,5.832,0.74c0,0,8.992,3.549,8.992-8.994
			c0,0,0.14-11.781-6.116-14.148C238.013,242.497,222.75,236.031,220.999,256.594z"/>
		<path fill="#F9F9F9" d="M223.979,250.104c0,0,3.55-7.101,10.651-6.085c0,0,2.933,0.517,5.41,2.992c0,0,2.622,8.757,0,11.379
			c0,0-0.018,4.733-7.702,4.733c0,0-7.347,1.259-7.347-3.043C224.992,260.08,222.965,257.037,223.979,250.104z"/>
		<path fill="#D09179" d="M236.999,246.216c0,0-6.596-4.228-11.159,2.705c0,0-0.845,11.161,3.043,12.004
			c0,0,4.817,2.113,8.116-1.183C236.999,259.742,241.669,250.889,236.999,246.216z"/>
		<path fill="#9D241F" d="M225.763,253.818c0,0,5.254-8.139,13.181-0.211c0,0,0.675-5.701-1.775-7.222c0,0-6.511-4.228-11.246,2.45
			C225.922,248.836,225.297,253.354,225.763,253.818z"/>
		<path fill="#1F1312" d="M255.766,227.787c0,0-1.227-1.605-2.622,1.099c0,0-2.195,8.222,1.724,6.933
			C254.867,235.818,260.395,232.417,255.766,227.787z"/>
		<path fill="#1F1312" d="M209.82,229.14c0,0,2.917,3.255,2.366,7.692c0,0,0.11,0.932-1.148,0.212c0,0-3.924-1.648-2.74-7.271
			C208.298,229.772,208.975,227.491,209.82,229.14z"/>
	</g>
	<path fill="none" stroke="#000000" stroke-width="0.4818" stroke-miterlimit="10" d="M-399.938,436.731"/>
	<path fill="none" stroke="#000000" stroke-width="0.4818" stroke-miterlimit="10" d="M-402.792,439.275"/>
	<path fill="none" stroke="#000000" stroke-width="0.4818" stroke-miterlimit="10" d="M-404.894,445.986"/>
	<path fill="none" stroke="#000000" stroke-width="0.4818" stroke-miterlimit="10" d="M-403.186,449.103"/>
	<path fill="none" stroke="#000000" stroke-width="0.4818" stroke-miterlimit="10" d="M-403.36,452.455"/>
	<path fill="none" stroke="#000000" stroke-width="0.4818" stroke-miterlimit="10" d="M-395.692,454.172"/>
	<path opacity="0.3" fill="#B0B0B0" d="M-369.909,381.479c0,0-1.268,8.876-3.805,11.413c0,0-10.65,14.961-5.325,35.505
		c0,0-1.521-2.537-3.55-10.398c0,0,0.253-2.409-5.834-0.761c0,0-2.155,1.647-3.803,0c0,0-1.648-1.521-4.692,0
		c0,0-4.185-1.902-6.087,0c0,0-3.931-1.774-7.354,1.647c0,0-5.2-1.015-6.719,1.776c0,0-3.299,0-3.299,3.297
		c0,0-4.058,1.648-1.395,5.832c0,0,3.424,18.134,20.669,19.528c0,0,4.945,2.155,28.783,4.058c0,0,4.947,7.734,11.856,11.856
		c0,0-3.36,12.109,8.306,8.305c0,0,0.507,1.479,5.834,0.739c0,0,8.991,3.551,8.991-8.992c0,0,4.651-0.549,13.959-11.908
		c0,0,0.382-1.647,8.751,1.016c0,0,23.457,11.411,38.801,4.944c0,0,25.488-10.905,4.059-28.403c0,0,0.633-2.409-3.298-3.299
		c0,0,0.888-3.295-2.029-3.295c0,0,0.89-3.806-5.071-3.806c0,0,0-3.169-7.229-4.438c0,0-3.677-4.818-6.719-2.409
		c0,0-2.981-3.36-5.074-1.269c0,0-2.345-1.711-4.057,0c0,0-1.205,1.332-2.535,0c0,0-1.587-1.585-3.171,0c0,0-2.6,4.439-2.6,2.602
		c0,0-0.19-16.931-13.124-29.863c0,0-6.785-14.964-16.264-25.74c0,0,3.202-2.538,6.753-2.538c0,0,1.269-0.126,6.087-3.424
		c0,0,26.881-16.991,24.472-37.786c0,0-2.726-2.346-4.437,1.902c0,0-3.678,1.142-3.678,7.734c0,0-2.535,2.029-4.818,7.229
		c0,0-1.985,4.142-10.777,0c0,0-2.518-3.974-13.602,0c0,0-6.688,2.789-6.688,0c0,0,0.429-13.206,4.733-17.512
		c0,0,3.72-1.34,3.72-10.893c0,0,0.845-6.002-15.893,10.736c0,0-16.57-1.691-17.585,8.453c0,0-1.689-6.763-22.655-22.654
		c0,0-27.05-16.57-35.165-16.57c0,0-18.936-23.67-20.627-34.152c0,0-5.41-2.027,1.691,21.642c0,0-15.217-7.777-6.425,6.425
		c0,0-9.975-3.213,0,6.763c0,0,1.86,44.804,21.303,64.247c0,0-10.483,3.382-40.409,40.407c0,0-9.299,6.932-29.25,6.932
		c0,0,8.792,7.778,20.627,11.159c0,0,37.914,12.089,102.458-31.446C-383.096,376.069-372.954,381.479-369.909,381.479z"/>
	<path fill="#717171" d="M-337.304,461.905c0,0,22.173-9.925,16.087-35.284c0,0,6.847-3.55,1.521-16.484
		c0,0,4.996-7.381-6.645-19.021c0,0-7.472-24.092-22.604-34.237l-0.676-24.345c0,0,0.406-6.129,1.075-8.864c0.67-2.734,0,0,0,0
		s-2.268,4.071-2.268,0c0,0-0.164,25.106-15.084,15.082c0,0-7.408-28.012-50.273-48.618c-42.864-20.606,0,0,0,0s6.489,4.119,0,2.59
		c0,0,18.739,6.842,31.486,29.159c0,0,5.122,14.202-1.979,7.101c0,0-41.814-39.021-48.9-48.899s0,0,0,0s-15.338-15.14-15.501-19.828
		c0,0,1.521,16.991,72.785,82.422c0,0,2.231,7.929,7.235,12.936c0,0,5.559,12.391,2.09,23.837c0,0,2.864-0.507-2.09,13.442
		c0,0-8.756,7.101-7.996,25.614c0,0-1.11,35.064,18.846,43.399c0,0,2.863-16.046,18.062-10.242
		C-342.132,451.663-337.304,455.394-337.304,461.905z"/>
	<path fill="#B0B0B0" d="M-495.952,400.499c0,0,37.723,26.122,121.065-32.207c0,0,6.395-1.269,1.755-10.398
		c0,0-8.19-7.101-4.893-15.217c0,0-73.039-66.444-73.039-82.675c0,0-0.76,6.086,8.37,22.824c0,0-8.243-6.848-8.243-8.242
		c0,0,1.141,4.945,4.692,8.495l-6.848-4.058c0,0,17.581,22.398,31.615,31.615c14.035,9.216,0.595,0.595,0.595,0.595
		s-15.091-7.483-21.558-13.95c0,0,16.484,19.021,23.332,23.332c0,0-9.202-3.995-14.59-9.382c0,0,7.101,11.039,19.595,19.593
		c0,0-11.599-3.363-14.896-6.66c0,0,8.116,9.383,16.738,13.694c0,0-7.608,2.537-11.413-1.267c0,0,13.188,10.396,19.273,10.396
		c0,0-11.665,3.043-16.482-1.774c0,0,5.323,6.594,14.961,6.594c0,0-7.607,2.534-16.229,0c0,0,6.086,4.056,15.216,4.056
		c0,0-13.441,5.834-21.81,2.03c0,0,4.311,4.059,15.723,2.536c0,0-19.527,5.833-25.613,5.833c0,0,9.383,2.029,19.78,0
		c0,0-12.426,6.847-22.57,6.847c0,0,9.637,0,13.694,0c0,0-29.45,17.245-40.069,17.245c-10.621,0,15.723,2.03,35.25-8.115
		c0,0-34.597,19.408-47.678,16.232c0,0,12.173,4.31,21.304,1.521C-458.924,399.992-478.706,407.347-495.952,400.499z"/>
	<path fill="#B0B0B0" d="M-395.181,307.934c0,0-8.966-11.92-34.833-21.049l6.975,6.973c0,0,8.308,1.418,10.441,3.551h-7.019
		l4.376,4.375c0,0,8.653-1.934,10.589,0c0,0-8.708,0.57-8.708,2.346l3.045,2.873C-410.314,307.002-406.25,302.101-395.181,307.934z"
		/>
	<path fill="#B0B0B0" d="M-374.887,327.376c0,0,15.46,15.554,12.416,24.347c0,0,11.835-1.354,11.835,11.835
		c0,0-5.114-42.478,4.734-52.326c0,0-3.381-0.763-8.114,14.792l-1.43-6.086c0,0,0,7.101,0,14.878c0,0-4.949-6.764-4.949-11.835
		c0,0-0.529,3.803-0.265,10.186c0,0-3.501-3.085-3.501-7.48c0,0-0.917,5.186,0,11.706
		C-364.16,337.392-370.059,329.404-374.887,327.376z"/>
	<path fill="#989898" d="M-381.237,374.886c0,0,5.803,4.563,12.284,4.563c0,0,2.596-9.129-0.788-9.129
		C-369.741,370.32-371.6,367.107-381.237,374.886z"/>
	<path fill="#161616" d="M-348.944,338.197v17.582l4.653,2.278c0,0,22.44-10.073,30.515-23.241c0,0-3.552,4.395-11.666,7.269
		c0,0,3.042-3.044,5.239-5.241c0,0-13.693,3.552-14.539,6.425c0,0-2.874,3.889-7.608,3.889c0,0,0.677-5.24,5.411-6.762
		c4.734-1.522,0-0.677,0-0.677s-7.947,1.353-8.962,3.89C-345.901,343.608-348.944,340.396-348.944,338.197z"/>
	<path fill="#161616" d="M-380.392,343.608c0,0-1.502,10.302,5.505,14.449c0,0,3.625,7.19-1.447,8.543
		c0,0-40.915,27.897-52.58,28.911c0,0,16.061-4.396,46.155-27.22c0,0-24.515,10.481-38.717,14.37c0,0,34.83-14.031,38.21-17.414
		c0,0-15.725,7.271-33.983,6.086c0,0,27.449-4.134,30.587-7.27c0,0-8.1,2.367-25.346,0c0,0,19.443,0.339,26.543-3.72
		c0,0-7.137-4.226-14.473-5.58c0,0,12.979,1.018,15.254,3.293c0,0-7.881-7.857-13.631-8.703c0,0,10.989,1.521,14.879,3.552
		c0,0-22.993-15.556-31.953-29.25c0,0,15.385,18.002,26.881,22.78c0,0-14.563-20.56-23.161-26.161c0,0,19.794,12.355,26.035,22.318
		c0,0-4.226-8.624-28.403-30.603C-414.037,311.991-385.209,336.76-380.392,343.608z"/>
	<path fill="#161616" d="M-360.395,349.861c0,0,3.757-0.422,7.224,3.045c0,0-0.677-11.835,0-21.811c0,0-0.846,5.412-2.197,13.188
		c0,0-2.875-9.048-2.875-11.118c0,0,0.386,6.891,1.461,10.271c0,0-3.612-4.732-3.612-6.93c0,0,1.137,5.238,1.137,7.101
		c0,0-3.382-3.135-3.382-6.217C-362.64,337.392-360.395,347.989-360.395,349.861z"/>
	<path fill="#FFFFFF" d="M-324.428,435.404c0,0-2.876-4.557-5.242,3.389c0,0-2.071,15.174,2.62,10.483
		C-327.05,449.276-319.019,443.681-324.428,435.404z"/>
	<path fill="#FFFFFF" d="M-369.909,435.404c0,0-3.212-6.586-4.396,0.854c0,0-2.704,9.131,3.55,12.343c0,0,3.554,3.55,3.554-1.354
		C-367.202,447.247-366.357,441.653-369.909,435.404z"/>
	<path fill="#989898" d="M-367.448,442.141c0,0,2.272,3.586,4.304,1.557c0,0,5.764-3.162,1.181-7.743c0,0-2.025,0.147-1.014-3.239
		c0,0,0.006-4.072-4.139-2.037c0,0-3.016,1.689-3.016,4.312C-370.132,434.989-367.861,439.399-367.448,442.141z"/>
	<path fill="#989898" d="M-329.838,440.223c0,0-3.043-6.725-4.904-0.947c0,0-1.258,5.447,1.69,5.044c0,0,2.637,1.499,2.926-1.298
		L-329.838,440.223z"/>
	<path fill="#B0B0B0" d="M-322.557,452.558c0,0,3.62-0.704,12.16,2.721c0,0,14.879,6.932,29.333,4.48c0,0-11.072,0.787-19.104-3.496
		c0,0,18.598,4.933,28.234-1.237c0,0-7.693,4.48-20.458,0c0,0,20.29-0.569,22.065-4.849c0,0-8.455,5.862-21.98,1.13
		c0,0,13.525-1.186,16.4-3.299c0,0-12.005,1.606-14.457,0c0,0,12.344-2.79,14.203-4.648c0,0-10.071,2.965-16.675,1.318
		c-0.107-0.026-0.212-0.055-0.316-0.083c-6.595-1.828,11.411-2.081,11.919-4.954c0,0-5.794,2.494-10.707,0.771
		c-0.122-0.045-0.245-0.09-0.367-0.139c-4.988-1.986,6.828-3.193,7.355-5.284c0,0-6.088,3.128-9.638,2.367
		c0,0,3.214-3.974,6.678-5.325c0,0-3.382,1.929-10.481,3.373c0,0,4.896-6.848,8.027-8.027c0,0-5.068,0.854-11.916,6.729
		c0,0,5.326-6.978,6.51-9.767c0,0-3.129,4.903-6.425,6.426c0,0,2.958-3.891,2.958-6.426c0,0-2.366,5.749-9.003,9.002
		c0,0,2.747-5.451,5.028-6.974c0,0-3.846,1.479-5.07,3.889c0,0-1.944-2.113,1.606-4.903c0,0-3.382,1.692-5.242,5.242
		c0,0-2.96-4.987,3.552-9.385c0,0-5.242,1.775-6.512,7.863C-314.878,429.073-315.611,441.806-322.557,452.558z"/>
	<path fill="#B0B0B0" d="M-392.041,434.399c0,0-4.823-6.688-5.809-9.288c0,0,2.775,4.653,5.957,6.276c0,0-2.679-3.728-2.502-6.008
		c0,0,1.959,5.354,8.348,8.794c0,0-2.358-5.117-4.528-6.663c0,0,3.732,1.629,4.786,3.89c0,0,2.085-1.75-1.259-4.534
		c0,0,3.253,1.783,4.859,5.12c0,0,3.298-4.258-2.886-8.714c0,0,5.103,2.001,5.942,7.575c0,0-0.156,11.51,6.019,21.718
		c0,0-33.563-2.81-40.301-9.545c0,0,7.155,4.071,12.396,2.966c0,0-14.539-3.531-16.231-8.066c0,0,4.744,5.262,15.053,5.262
		c0,0-11.671-3.793-15.053-9.076c0,0,6.473,4.927,13.889,5.738c0,0-9.318-3.253-12.537-9.504c0,0,5.205,4.845,15.96,7.58
		c0,0-11.104-7.194-12.07-10.115c0,0,6.086,6.018,16.315,8.927s-9.723-6.561-11.412-9.772
		C-407.104,426.959-397.267,434.399-392.041,434.399z"/>
	<path fill="#161616" d="M-374.887,451.093c0,0-17.974-1.592-23.552-5.106c0,0,11.537,2.553,14.835,2.553
		c0,0-11.44-2.98-12.681-4.22c0,0,10.018,2.209,13.061,2.845c0,0-13.567-5.285-13.567-6.891c0,0,10.146,4.537,13.567,5.713
		c0,0-6.053-3.806-7.845-7.844c0,0,4.674,5.198,7.973,6.476c0,0-0.413-3.771-3.566-8.664c0,0,5.468,5.958,5.468,7.569
		c0,0,0-3.461-2.409-8.28c0,0,1.738,3.255,2.838,4.648c0.119,0.151,0.23,0.281,0.331,0.382c1.037,1.035-0.331-3.505-0.331-6.168
		C-380.766,434.105-377.455,450.459-374.887,451.093z"/>
	<path fill="#161616" d="M-319.696,451.093c0,0,3.426,0.062,5.961,1.362c0,0,6.848,3.711,9.891,3.711c0,0-5.802-2.188-7.926-4.312
		c0,0,10.167,3.425,14.773,3.299c0,0-13.061-3.484-16.485-4.976c0,0,12.934,0.978,16.485,2.278c0,0-2.028-2.429-13.568-3.353
		c0,0,5.2-1.938,10.144-1.938c0,0-3.55-1.524-10.651,0c0,0,5.962-3.427,11.539-3.427c0,0-5.685-1.688-12.932,0.983
		c0,0,2.788-6.028,9.254-6.801c0,0-6.412-0.446-11.538,4.679c0,0,1.098-5.199,3.805-7.229c0,0-2.03-0.247-4.438,5.455
		c0,0,1.078-5.896,1.901-6.72c0,0-0.888,0.395-3.931,10.214L-319.696,451.093z"/>
	<path fill="#909090" d="M-360.209,465.232c0,0-3.36,12.11,8.306,8.306c0,0,0.507,1.479,5.832,0.74c0,0,8.992,3.549,8.992-8.994
		c0,0,0.14-11.781-6.116-14.148C-343.195,451.136-358.458,444.67-360.209,465.232z"/>
	<path fill="#F9F9F9" d="M-357.229,458.742c0,0,3.55-7.101,10.651-6.085c0,0,2.933,0.517,5.41,2.992c0,0,2.622,8.757,0,11.379
		c0,0-0.018,4.733-7.702,4.733c0,0-7.347,1.259-7.347-3.043C-356.216,468.719-358.243,465.676-357.229,458.742z"/>
	<path fill="#161616" d="M-344.209,454.854c0,0-6.596-4.228-11.159,2.705c0,0-0.845,11.161,3.043,12.004
		c0,0,4.817,2.113,8.116-1.183C-344.209,468.381-339.539,459.527-344.209,454.854z"/>
	<path fill="#161616" d="M-355.445,462.457c0,0,5.254-8.139,13.181-0.211c0,0,0.675-5.701-1.775-7.222c0,0-6.511-4.228-11.246,2.45
		C-355.286,457.475-355.911,461.993-355.445,462.457z"/>
	<path fill="#161616" d="M-325.442,436.426c0,0-1.227-1.605-2.622,1.099c0,0-2.195,8.222,1.724,6.933
		C-326.341,444.457-320.813,441.056-325.442,436.426z"/>
	<path fill="#161616" d="M-371.388,437.778c0,0,2.917,3.255,2.366,7.692c0,0,0.11,0.932-1.148,0.212c0,0-3.924-1.648-2.74-7.271
		C-372.91,438.411-372.233,436.13-371.388,437.778z"/>
</g>
</svg>
