<?xml version="1.0" encoding="utf-8"?>
<!-- Generator: Adobe Illustrator 16.0.4, SVG Export Plug-In . SVG Version: 6.00 Build 0)  -->
<!DOCTYPE svg PUBLIC "-//W3C//DTD SVG 1.1//EN" "http://www.w3.org/Graphics/SVG/1.1/DTD/svg11.dtd">
<svg version="1.1" id="Layer_1" xmlns="http://www.w3.org/2000/svg" xmlns:xlink="http://www.w3.org/1999/xlink" x="0px" y="0px"
	 width="934px" height="66px" viewBox="0 0 934 66" enable-background="new 0 0 934 66" xml:space="preserve">
<path opacity="0.2" fill="#010101" d="M60.248,42.732c0,0,0-3.229,0-3.964c0,0,0.587-1.834-1.541-2.422c0,0-1.248-0.366-1.688-0.807
	c0,0-5.247-1.578-8.513,1.688c0,0-0.294,2.422-0.881,3.009c0,0-1.174-0.073-1.174,3.376c0,0,0.807,1.248-4.477,3.449
	c0,0-2.275,0.073-4.697-1.101c0,0-0.367,0.587-0.954,0c0,0-0.147-0.514-0.513-0.514c0,0-0.807-0.66-1.468,0
	c0,0-1.101-1.248-2.275-1.248c0,0-0.808-0.733-1.468-0.366c0,0-5.871-8.587-14.384-4.844c0,0-8.807,4.623,0.881,10.567
	c0,0,1.688,0.734,9.1,0.734c0,0,3.669,0.073,4.256,0.66c0,0,1.248,0.954,4.624,0.954c0,0,1.321,1.175,5.284,1.175
	c0,0,4.991,5.283,10.127,3.596c5.137-1.688,3.669-2.789,4.403-3.523c0,0,2.129-3.008,3.01-3.008c0,0,3.595-1.028,3.229-5.798
	C61.128,44.347,60.834,42.732,60.248,42.732z"/>
<path opacity="0.2" fill="#010101" d="M63.33,39.503c0,0-1.32-3.669,1.395-3.669c0,0,3.375-0.514,5.431,2.935
	c0,0-0.249,3.523-3.573,3.083c0,0-0.218-1.149-0.684,0C65.898,41.852,64.797,43.245,63.33,39.503z"/>
<path opacity="0.2" fill="#010101" d="M62.596,38.956c0,0-0.367,0.253-0.954-0.334c0,0-0.941-1.089-0.171-1.859
	c0,0,1.125-0.733,1.125,0.587C62.596,37.35,62.784,38.768,62.596,38.956z"/>
<path opacity="0.2" fill="#010101" d="M65.018,43.515c0,0,3.89-2.03,4.697,0.979c0,0-0.171,0.244,0,0.416
	c0,0,0.783,1.247-1.933,1.59c0,0-0.807,0.098-2.079-1.174c0,0-1.712-0.49-0.808,0c0,0,2.471,0.929,2.728,2.728
	c0,0-0.281,2.435-2.801,1.896c0,0-0.381-0.109-0.19,0.189c0,0,0.411,1.399-2.207,2.892c0,0-2.838,0.611-2.838-2.128
	c0,0,0.44-1.688,2.716-1.908c0,0,1.015,0.38,1.345,0.71c0,0,0.709,0.366,0.172-0.171c0,0-1.444-1.028-1.712-1.713
	c0,0-0.294-1.858,1.15-2.373c0,0,0.44-0.146,0-0.293c0,0-1.371,0.049-0.685-1.077C62.571,44.077,63.159,42.829,65.018,43.515z"/>
<path opacity="0.2" fill="#010101" d="M58.951,51.905c0,0,0.293-1.761-1.027-1.052c0,0-0.685,0.293-0.685,1.15
	c0,0-2.067,1.528-1.126,2.47c0,0,0.961,1.224,2.866,0.27c0,0,1.636-0.911,0.412-1.654C59.392,53.089,58.756,52.492,58.951,51.905z"
	/>
<path opacity="0.2" fill="#010101" d="M124.792,28.811c0,0,3.817-0.782,2.544-3.718c0,0-0.833-1.713,0.88-3.425
	c0,0,2.055-3.229-5.088-8.219c0,0-6.458-8.122-13.699,0c0,0-2.202,0.636-2.74,1.174c0,0-4.942-0.636-8.611,3.034
	c0,0-0.881-0.293-1.762,0.587c0,0-12.524-4.403-14.579,2.936c0,0-2.936,9.296,8.121,6.85c0,0,5.675-2.544,5.675-5.675
	c0,0,3.23-5.187,6.752-4.307c0,0,0.44,0.637,1.566,0.196c0,0,1.54,1.395,2.397-0.93c0,0,0.685-1.174,1.809-0.049
	c0,0,0.979,0.881,4.6,0.392c0,0,8.023,2.789,5.333,7.73c0,0-0.44,1.32,1.125,1.125C119.117,26.512,119.41,28.811,124.792,28.811z"/>
<path opacity="0.2" fill="#010101" d="M132.502,21.375c0.542,1.115,0.682-0.046,0.682-0.046c3.288-0.663,3.772,2.834,3.772,2.834
	c-1.818,3.58-5.221,3.294-5.221,3.294c-2.709,0.184-1.638-3.566-1.638-3.566C131.31,20.058,132.502,21.375,132.502,21.375z"/>
<path opacity="0.2" fill="#010101" d="M129.51,26.088c0.088,1.317-1.083,0.661-1.083,0.661c-0.821-0.717,0.045-1.866,0.045-1.866
	c0.546-0.625,0.929-0.397,0.929-0.397C129.603,24.66,129.51,26.088,129.51,26.088z"/>
<path opacity="0.2" fill="#010101" d="M129.034,19.377c-0.759-1.077,0.611-1.12,0.611-1.12c0.429-0.176-0.02-0.293-0.02-0.293
	c-1.475-0.415-1.307-2.29-1.307-2.29c0.222-0.702,1.594-1.824,1.594-1.824c0.5-0.573-0.183-0.159-0.183-0.159
	c-0.308,0.352-1.294,0.798-1.294,0.798c-2.285-0.066-2.837-1.721-2.837-1.721c-0.185-2.733,2.688-2.314,2.688-2.314
	c2.712,1.312,2.396,2.736,2.396,2.736c-0.17,0.311,0.203,0.178,0.203,0.178c2.478-0.707,2.922,1.703,2.922,1.703
	c-0.136,1.811-2.539,2.905-2.539,2.905c-0.87,0.549,0.806-0.055,0.806-0.055c1.183-1.355,1.995-1.312,1.995-1.312
	c2.733,0.159,2.036,1.456,2.036,1.456c-0.159,0.183,0.027,0.415,0.027,0.415c-0.603,3.057-4.62,1.293-4.62,1.293
	C129.703,20.582,129.033,19.378,129.034,19.377z"/>
<path opacity="0.2" fill="#010101" d="M125.255,10.6c1.17-0.824-0.523-1.623-0.523-1.623c-1.965-0.824-2.841,0.461-2.841,0.461
	c-0.876,1.003,1.289,2.39,1.289,2.39c0.058,0.854,0.761,1.101,0.761,1.101c1.366,0.619,0.954-1.119,0.954-1.119
	C124.66,11.238,125.254,10.6,125.255,10.6z"/>
<path opacity="0.2" fill="#010101" d="M184.655,44.267c0,0,0-3.229,0-3.963c0,0,0.586-1.835-1.542-2.422
	c0,0-1.248-0.367-1.687-0.808c0,0-5.248-1.577-8.514,1.688c0,0-0.293,2.422-0.88,3.008c0,0-1.174-0.072-1.174,3.376
	c0,0,0.807,1.248-4.477,3.45c0,0-2.275,0.073-4.696-1.102c0,0-0.367,0.587-0.955,0c0,0-0.147-0.514-0.514-0.514
	c0,0-0.807-0.66-1.467,0c0,0-1.101-1.247-2.275-1.247c0,0-0.808-0.733-1.468-0.367c0,0-5.871-8.586-14.384-4.844
	c0,0-8.807,4.623,0.881,10.568c0,0,1.688,0.733,9.1,0.733c0,0,3.669,0.073,4.256,0.66c0,0,1.248,0.954,4.624,0.954
	c0,0,1.321,1.175,5.284,1.175c0,0,4.99,5.283,10.127,3.596c5.138-1.688,3.669-2.789,4.404-3.522c0,0,2.128-3.009,3.008-3.009
	c0,0,3.597-1.027,3.229-5.798C185.535,45.881,185.241,44.267,184.655,44.267z"/>
<path opacity="0.2" fill="#010101" d="M187.736,41.037c0,0-1.321-3.669,1.395-3.669c0,0,3.375-0.514,5.431,2.936
	c0,0-0.249,3.522-3.573,3.082c0,0-0.218-1.148-0.684,0C190.305,43.386,189.205,44.78,187.736,41.037z"/>
<path opacity="0.2" fill="#010101" d="M187.003,40.49c0,0-0.367,0.254-0.955-0.334c0,0-0.941-1.088-0.171-1.858
	c0,0,1.125-0.734,1.125,0.587C187.003,38.885,187.19,40.303,187.003,40.49z"/>
<path opacity="0.2" fill="#010101" d="M189.425,45.049c0,0,3.889-2.03,4.696,0.979c0,0-0.171,0.245,0,0.416
	c0,0,0.783,1.248-1.933,1.59c0,0-0.807,0.099-2.079-1.174c0,0-1.712-0.489-0.807,0c0,0,2.471,0.93,2.728,2.728
	c0,0-0.281,2.435-2.801,1.896c0,0-0.381-0.109-0.19,0.189c0,0,0.411,1.4-2.207,2.893c0,0-2.838,0.61-2.838-2.128
	c0,0,0.44-1.688,2.716-1.909c0,0,1.015,0.38,1.345,0.71c0,0,0.709,0.366,0.171-0.171c0,0-1.444-1.027-1.712-1.713
	c0,0-0.293-1.858,1.149-2.372c0,0,0.44-0.147,0-0.294c0,0-1.37,0.049-0.685-1.077C186.979,45.611,187.565,44.363,189.425,45.049z"/>
<path opacity="0.2" fill="#010101" d="M183.358,53.439c0,0,0.293-1.761-1.027-1.052c0,0-0.686,0.294-0.686,1.15
	c0,0-2.067,1.528-1.125,2.471c0,0,0.961,1.223,2.866,0.27c0,0,1.635-0.911,0.412-1.654
	C183.798,54.623,183.163,54.027,183.358,53.439z"/>
<path opacity="0.2" fill="#010101" d="M260.852,40.764c0,0,3.817-0.783,2.545-3.719c0,0-0.833-1.713,0.879-3.426
	c0,0,2.055-3.229-5.088-8.219c0,0-6.458-8.122-13.698,0c0,0-2.203,0.636-2.74,1.174c0,0-4.941-0.636-8.611,3.033
	c0,0-0.881-0.293-1.761,0.588c0,0-12.525-4.404-14.58,2.936c0,0-2.936,9.295,8.122,6.85c0,0,5.674-2.545,5.674-5.676
	c0,0,3.229-5.188,6.752-4.307c0,0,0.44,0.637,1.565,0.197c0,0,1.541,1.395,2.397-0.93c0,0,0.686-1.174,1.81-0.049
	c0,0,0.979,0.881,4.599,0.391c0,0,8.024,2.789,5.333,7.73c0,0-0.44,1.322,1.125,1.125C255.177,38.463,255.47,40.764,260.852,40.764z
	"/>
<path opacity="0.2" fill="#010101" d="M268.562,33.326c0.542,1.115,0.682-0.047,0.682-0.047c3.288-0.662,3.772,2.836,3.772,2.836
	c-1.818,3.578-5.221,3.293-5.221,3.293c-2.709,0.184-1.639-3.566-1.639-3.566C267.37,32.01,268.562,33.326,268.562,33.326z"/>
<path opacity="0.2" fill="#010101" d="M265.569,38.039c0.089,1.318-1.083,0.662-1.083,0.662c-0.82-0.717,0.046-1.867,0.046-1.867
	c0.546-0.625,0.929-0.396,0.929-0.396C265.662,36.611,265.569,38.039,265.569,38.039z"/>
<path opacity="0.2" fill="#010101" d="M265.094,31.328c-0.76-1.076,0.61-1.119,0.61-1.119c0.43-0.178-0.02-0.293-0.02-0.293
	c-1.475-0.416-1.307-2.291-1.307-2.291c0.222-0.701,1.593-1.823,1.593-1.823c0.501-0.573-0.182-0.159-0.182-0.159
	c-0.308,0.352-1.295,0.799-1.295,0.799c-2.285-0.067-2.838-1.722-2.838-1.722c-0.184-2.733,2.688-2.314,2.688-2.314
	c2.711,1.313,2.396,2.737,2.396,2.737c-0.17,0.311,0.203,0.177,0.203,0.177c2.478-0.706,2.922,1.703,2.922,1.703
	c-0.135,1.812-2.538,2.905-2.538,2.905c-0.87,0.549,0.806-0.055,0.806-0.055c1.183-1.355,1.995-1.311,1.995-1.311
	c2.732,0.158,2.035,1.455,2.035,1.455c-0.159,0.184,0.028,0.416,0.028,0.416c-0.603,3.057-4.62,1.293-4.62,1.293
	C265.763,32.533,265.093,31.328,265.094,31.328z"/>
<path opacity="0.2" fill="#010101" d="M261.314,22.551c1.171-0.823-0.522-1.622-0.522-1.622c-1.965-0.823-2.841,0.462-2.841,0.462
	c-0.876,1.002,1.289,2.389,1.289,2.389c0.057,0.854,0.761,1.102,0.761,1.102c1.365,0.619,0.954-1.119,0.954-1.119
	C260.72,23.189,261.314,22.551,261.314,22.551z"/>
</svg>
